<?xml version="1.0" encoding="UTF-8"?>
<svg id="Layer_1" data-name="Layer 1" xmlns="http://www.w3.org/2000/svg" viewBox="0 0 800.25 800.25">
  <defs>
    <style>
      .cls-1 {
        fill: #fff;
      }

      .cls-2 {
        fill: #18d3ff;
      }

      .cls-3 {
        fill: #23324e;
      }

      .cls-4 {
        fill: #58b999;
      }
    </style>
  </defs>
  <path class="cls-3" d="M519.66,799.66h-205.73c-5.08,0-9.2-4.12-9.2-9.2s4.12-9.2,9.2-9.2h205.73c5.08,0,9.2,4.12,9.2,9.2s-4.12,9.2-9.2,9.2Z"/>
  <g>
    <path class="cls-2" d="M606.81,335.44c-8.95,0-17.67-3.28-24.44-9.35l-155.11-139.14c-.91-.81-.98-2.21-.17-3.12l45.92-51.2c.81-.91,2.21-.98,3.12-.17l118.96,106.71c1.05,.95,2.71,.67,3.4-.57L730.52,1.73c.59-1.06,1.94-1.45,3-.85l60.07,33.48c1.06,.59,1.45,1.94,.85,3l-155.68,279.3c-5.42,9.72-14.96,16.45-25.93,18.28-2.01,.34-4.03,.5-6.03,.5Z"/>
    <g>
      <path class="cls-3" d="M89.48,642.26c-2.5,0-4.53-2.03-4.53-4.53V291.7c0-2.5,2.03-4.53,4.53-4.53h8.91c3.05,0,5.52-2.47,5.52-5.52s-2.47-5.52-5.52-5.52h-8.91c-8.6,0-15.57,6.97-15.57,15.57v346.03c0,8.6,6.97,15.57,15.57,15.57h16.27c3.05,0,5.52-2.47,5.52-5.52h0c0-3.05-2.47-5.52-5.52-5.52h-16.27Z"/>
      <path class="cls-3" d="M744.11,276.13H195.3c-3.26,0-5.71,2.66-5.43,5.91l.02,.21c.24,2.78,2.57,4.92,5.36,4.92H744.11c2.5,0,4.53,2.03,4.53,4.53v346.03c0,2.5-2.03,4.53-4.53,4.53H375.01c-2.84,0-5.04,2.29-5.17,5.12,0,.12-.01,.25-.02,.37-.18,3,2.15,5.55,5.15,5.55h369.14c8.6,0,15.57-6.97,15.57-15.57V291.7c0-8.6-6.97-15.57-15.57-15.57Z"/>
    </g>
    <path class="cls-3" d="M776.81,241.84H175.04c-5.48,0-9.71,4.8-9.03,10.24l.03,.2c.57,4.55,4.45,7.97,9.04,7.97H776.81c1.41,0,2.56,1.15,2.56,2.56v470.49c0,1.41-1.15,2.56-2.56,2.56H56.78c-1.41,0-2.56-1.15-2.56-2.56V262.81c0-1.41,1.15-2.56,2.56-2.56h48.97c5.08,0,9.2-4.12,9.2-9.2h0c0-5.08-4.12-9.2-9.2-9.2H56.78c-11.58,0-20.97,9.39-20.97,20.97v470.49c0,11.58,9.39,20.97,20.97,20.97H776.81c11.58,0,20.97-9.39,20.97-20.97V262.81c0-11.58-9.39-20.97-20.97-20.97Z"/>
    <path class="cls-3" d="M416.8,570.84c-64.95,0-117.79-52.84-117.79-117.79s52.84-117.79,117.79-117.79,117.79,52.84,117.79,117.79-52.84,117.79-117.79,117.79Zm0-224.54c-58.86,0-106.75,47.89-106.75,106.75s47.89,106.75,106.75,106.75,106.75-47.89,106.75-106.75-47.89-106.75-106.75-106.75Z"/>
    <path class="cls-3" d="M334.78,531.57c-.5,0-1.01-.14-1.46-.44-1.22-.81-1.55-2.45-.74-3.67,13.91-21,31.81-36.21,51.77-43.99,2.86-1.11,5.09-4.65,5.69-9.04l1.18-8.69c-11.3-8.26-19.24-21.54-21.96-36.79-.04,0-.07,0-.11,0-5.72,0-10.37-5.27-10.37-11.74s4.65-11.75,10.37-11.75c.04,0,.07,0,.11,0,4.7-26.4,24.75-45.49,47.92-45.49s43.22,19.08,47.92,45.49c5.61,.14,10.14,5.36,10.14,11.75s-4.53,11.6-10.14,11.74c-2.78,15.59-10.97,29.06-22.66,37.29l1.11,8.19c.6,4.38,2.83,7.93,5.68,9.03,19.97,7.78,37.87,22.99,51.78,43.99,.81,1.22,.47,2.86-.74,3.67-1.22,.81-2.86,.47-3.67-.74-13.3-20.08-30.34-34.6-49.28-41.98-4.69-1.82-8.14-6.89-9.01-13.25l-1.56-11.48,1.4-.91c11.39-7.45,19.36-20.36,21.86-35.44,.38-2.25,2.37-3.82,4.63-3.67,.08,0,.15,.01,.23,.01,2.8,0,5.07-2.89,5.07-6.45s-2.42-6.65-5.3-6.45c-2.26,.15-4.25-1.42-4.63-3.66-4.02-24.25-22.04-41.84-42.83-41.84s-38.81,17.59-42.83,41.84c-.39,2.31-2.47,3.89-4.84,3.67-.11,0-.23-.02-.36-.02-2.8,0-5.07,2.9-5.07,6.46,0,3.72,2.52,6.68,5.44,6.43,2.36-.22,4.44,1.36,4.82,3.66,2.45,14.76,10.18,27.52,21.2,35.01l1.35,.92-1.61,11.91c-.87,6.36-4.32,11.44-9.02,13.26-18.93,7.38-35.97,21.9-49.28,41.98-.51,.77-1.35,1.19-2.21,1.19Zm35.21-102.65s0,0,0,0c0,0,0,0,0,0Zm-.02-23.42s0,0,0,0c0,0,0,0,0,0Z"/>
    <path class="cls-2" d="M310.61,634.84c-9.34-3.61-16.26-14.34-18.02-27.31l-2.31-17c-.57-4.2,1.16-8.4,4.56-10.93,25.95-19.3,44.82-50.63,50.93-87.36,.36-2.17,2.28-3.74,4.51-3.59,.33,.02,.66,.03,.99,.03,10.45,0,18.92-9.98,18.92-22.3s-8.47-22.3-18.92-22.3c-.33,0-.66,.01-.99,.03-2.23,.15-4.15-1.43-4.51-3.59-10.22-61.52-56.2-107.94-111.39-107.94s-101.19,46.44-111.4,107.98c-.38,2.3-2.51,3.8-4.87,3.59-.48-.04-.97-.07-1.46-.07-10.45,0-18.92,9.98-18.92,22.3s8.47,22.3,18.92,22.3c.49,0,.98-.02,1.46-.07,2.36-.21,4.49,1.29,4.87,3.59,5.98,36.02,24.21,66.86,49.37,86.25,3.3,2.55,4.96,6.68,4.4,10.81l-2.48,18.27c-1.76,12.97-8.68,23.7-18.02,27.31-64.67,25.2-119.22,82.92-153.44,159.36-1.14,2.56,.76,5.46,3.56,5.46H233.43s227.06,0,227.06,0c2.8,0,4.7-2.9,3.56-5.46-34.22-76.44-88.77-134.16-153.44-159.36Z"/>
    <g>
      <path class="cls-4" d="M406.81,212.09c-38.61-71.11-128.2-98.1-199.69-60.15-53.73,28.52-84.31,86.02-77.93,146.51,.5,4.73,4.49,8.24,9.14,8.24,.32,0,.65-.02,.98-.05,5.05-.54,8.72-5.06,8.19-10.12-5.59-52.97,21.2-103.34,68.25-128.32,62.61-33.22,141.07-9.61,174.89,52.68,2.43,4.46,8.01,6.11,12.48,3.7,4.46-2.43,6.12-8.01,3.7-12.48Z"/>
      <polygon class="cls-4" points="172.58 277.02 153.83 347.99 101.74 296.27 172.58 277.02"/>
      <polygon class="cls-4" points="397.76 216.77 399.36 217.67 399.34 215.83 397.76 216.77"/>
    </g>
    <g>
      <circle class="cls-3" cx="416.8" cy="235.54" r="22.86"/>
      <path class="cls-1" d="M416.8,263.92c-15.65,0-28.38-12.73-28.38-28.38s12.73-28.38,28.38-28.38,28.38,12.73,28.38,28.38-12.73,28.38-28.38,28.38Zm0-45.72c-9.56,0-17.34,7.78-17.34,17.34s7.78,17.34,17.34,17.34,17.34-7.78,17.34-17.34-7.78-17.34-17.34-17.34Z"/>
    </g>
  </g>
  <path class="cls-3" d="M565.89,474l-.1-.05c-3.18-1.48-6.93,.35-7.68,3.78-8.17,36.99-31.3,68.41-62.69,87.61-2.57,1.57-3.38,4.85-1.85,7.44,.02,.03,.04,.06,.06,.1,1.52,2.58,4.83,3.54,7.39,1.98,34-20.75,59.05-54.76,67.88-94.81,.54-2.46-.72-4.99-3-6.05Z"/>
</svg>