<?xml version="1.0" encoding="UTF-8"?>
<svg id="Layer_1" data-name="Layer 1" xmlns="http://www.w3.org/2000/svg" viewBox="0 0 800.25 800.25">
  <defs>
    <style>
      .cls-1 {
        fill: #fff;
      }

      .cls-2 {
        fill: #18d3ff;
      }

      .cls-3 {
        fill: #23324e;
      }

      .cls-4 {
        fill: #58b999;
      }
    </style>
  </defs>
  <path class="cls-3" d="M521.47,796.24h-205.73c-5.08,0-9.2-4.12-9.2-9.2s4.12-9.2,9.2-9.2h205.73c5.08,0,9.2,4.12,9.2,9.2s-4.12,9.2-9.2,9.2Z"/>
  <g>
    <g>
      <path class="cls-3" d="M102.34,272.72c-14.7,0-26.61,11.91-26.61,26.61v200c0,3.05,2.47,5.52,5.52,5.52s5.52-2.47,5.52-5.52v-200c0-8.6,6.97-15.57,15.57-15.57h27.32c3.05,0,5.52-2.47,5.52-5.52h0c0-3.05-2.47-5.52-5.52-5.52h-27.31Z"/>
      <path class="cls-3" d="M435.17,272.72H221.68c-3.05,0-5.52,2.47-5.52,5.52h0c0,3.05,2.47,5.52,5.52,5.52h213.5c3.05,0,5.52-2.47,5.52-5.52s-2.47-5.52-5.52-5.52Z"/>
      <path class="cls-3" d="M755.97,353.93c-3.05,0-5.52,2.47-5.52,5.52v269.35c0,5.55-4.5,10.05-10.05,10.05H357.87c-3.05,0-5.52,2.47-5.52,5.52h0c0,3.05,2.47,5.52,5.52,5.52h382.53c11.65,0,21.09-9.44,21.09-21.09V359.45c0-3.05-2.47-5.52-5.52-5.52Z"/>
    </g>
    <g>
      <path class="cls-3" d="M166.91,238.43H58.6c-11.58,0-20.97,9.39-20.97,20.97v243.81c0,4.16,2.81,7.81,6.85,8.82,.06,.01,.12,.03,.18,.04,5.77,1.46,11.38-2.86,11.38-8.81v-243.86c0-1.41,1.15-2.56,2.56-2.56h108.14c2.36,0,4.64-.91,6.34-2.53,.06-.05,.11-.11,.17-.16,5.9-5.71,1.87-15.71-6.34-15.71Z"/>
      <path class="cls-3" d="M357.87,238.43h-84.15c-2.41,0-4.67,1-6.42,2.66-.08,.07-.16,.15-.24,.22-5.89,5.56-1.68,15.52,6.42,15.52h83.86c4.81,0,9.2-3.46,9.68-8.25,.55-5.51-3.76-10.15-9.15-10.15Z"/>
      <path class="cls-3" d="M788.99,267.9l-.23,.04c-4.37,.73-7.57,4.51-7.57,8.94v453.01c0,1.41-1.15,2.56-2.56,2.56H321.06c-5.08,0-9.2,4.12-9.2,9.2h0c0,5.08,4.12,9.2,9.2,9.2h457.56c11.58,0,20.97-9.39,20.97-20.97V276.88c0-5.63-5.05-9.91-10.6-8.98Z"/>
    </g>
    <path class="cls-3" d="M418.61,567.43c-64.95,0-117.79-52.84-117.79-117.79s52.84-117.79,117.79-117.79,117.79,52.84,117.79,117.79-52.84,117.79-117.79,117.79Zm0-224.54c-58.86,0-106.75,47.89-106.75,106.75s47.89,106.75,106.75,106.75,106.75-47.89,106.75-106.75-47.89-106.75-106.75-106.75Z"/>
    <path class="cls-3" d="M336.6,528.16c-.5,0-1.01-.14-1.46-.44-1.22-.81-1.55-2.45-.74-3.67,13.91-21,31.81-36.21,51.77-43.99,2.86-1.11,5.09-4.65,5.69-9.04l1.18-8.69c-11.3-8.26-19.24-21.54-21.96-36.79-.04,0-.07,0-.11,0-5.72,0-10.37-5.27-10.37-11.74s4.65-11.75,10.37-11.75c.04,0,.07,0,.11,0,4.7-26.4,24.75-45.49,47.92-45.49s43.22,19.08,47.92,45.49c5.61,.14,10.14,5.36,10.14,11.75s-4.53,11.6-10.14,11.74c-2.78,15.59-10.97,29.06-22.66,37.29l1.11,8.19c.6,4.38,2.83,7.93,5.68,9.03,19.97,7.78,37.87,22.99,51.78,43.99,.81,1.22,.47,2.86-.74,3.67-1.22,.81-2.86,.47-3.67-.74-13.3-20.08-30.34-34.6-49.28-41.98-4.69-1.82-8.14-6.89-9.01-13.25l-1.56-11.48,1.4-.91c11.39-7.45,19.36-20.36,21.86-35.44,.38-2.25,2.37-3.82,4.63-3.67,.08,0,.15,.01,.23,.01,2.8,0,5.07-2.89,5.07-6.45s-2.42-6.65-5.3-6.45c-2.26,.15-4.25-1.42-4.63-3.66-4.02-24.25-22.04-41.84-42.83-41.84s-38.81,17.59-42.83,41.84c-.39,2.31-2.47,3.89-4.84,3.67-.11,0-.23-.02-.36-.02-2.8,0-5.07,2.9-5.07,6.46,0,3.72,2.52,6.68,5.44,6.43,2.36-.22,4.44,1.36,4.82,3.66,2.45,14.76,10.18,27.52,21.2,35.01l1.35,.92-1.61,11.91c-.87,6.36-4.32,11.44-9.02,13.26-18.93,7.38-35.97,21.9-49.28,41.98-.51,.77-1.35,1.19-2.21,1.19Zm35.21-102.65s0,0,0,0c0,0,0,0,0,0Zm-.02-23.42s0,0,0,0c0,0,0,0,0,0Z"/>
    <path class="cls-2" d="M252.04,564.67c-46.76,0-84.66,37.9-84.66,84.66s37.9,84.66,84.66,84.66,84.66-37.9,84.66-84.66-37.9-84.66-84.66-84.66Zm0,136.2c-28.46,0-51.53-23.07-51.53-51.53s23.07-51.53,51.53-51.53,51.53,23.07,51.53,51.53-23.07,51.53-51.53,51.53Z"/>
    <path class="cls-2" d="M.82,528.78H236.4v262.7c0,3.32-2.69,6.01-6.01,6.01H6.83c-3.32,0-6.01-2.69-6.01-6.01v-262.7H.82Z"/>
    <g>
      <path class="cls-2" d="M716.92,126.26h-184.23c-8.13,0-14.73,6.59-14.73,14.73v133.45c0,8.13,6.59,14.73,14.73,14.73h184.23c8.13,0,14.73-6.59,14.73-14.73V140.99c0-8.13-6.59-14.73-14.73-14.73Zm-70.52,115.91h-43.19c-3.4,0-5.59-3.62-4.01-6.63l13.97-26.7c1.34-2.55,1.06-5.71-.85-7.87-2.6-2.94-4.18-6.8-4.18-11.04,0-9.83,8.51-17.68,18.57-16.56,7.72,.85,13.91,7.12,14.69,14.85,.48,4.85-1.12,9.34-4.02,12.66-1.92,2.2-2.29,5.35-.94,7.94l13.98,26.71c1.58,3.02-.61,6.63-4.01,6.63Z"/>
      <path class="cls-3" d="M722.55,97.97h-5.18c.03-.55,.03-1.13,.03-1.71,0-51.14-41.46-92.6-92.6-92.6s-92.6,41.46-92.6,92.6c0,.58,0,1.17,.03,1.71h-5.18c-22.64,0-41.16,18.52-41.16,41.16v133.76c0,22.64,18.52,41.16,41.16,41.16h195.49c22.64,0,41.16-18.52,41.16-41.16V139.12c0-22.64-18.52-41.16-41.16-41.16Zm-173.2-1.71c0-41.6,33.85-75.45,75.45-75.45s75.45,33.85,75.45,75.45c0,.58,0,1.13-.03,1.71h-150.84c-.03-.58-.03-1.13-.03-1.71Zm197.21,176.63c0,13.24-10.77,24.01-24.01,24.01h-195.49c-13.24,0-24.01-10.77-24.01-24.01V139.12c0-13.24,10.77-24.01,24.01-24.01h195.49c13.24,0,24.01,10.77,24.01,24.01v133.76Z"/>
    </g>
    <polygon class="cls-4" points="398.6 215.29 400.2 216.18 400.18 214.35 398.6 215.29"/>
    <g>
      <path class="cls-4" d="M125.49,456.97c-4.87,0-8.94-3.83-9.18-8.75-2.9-58.62,16.07-145.72,79.05-198.26,50.01-41.72,116.71-53.2,198.28-34.13,4.95,1.16,8.02,6.11,6.87,11.06-1.16,4.95-6.11,8.03-11.06,6.87-75.64-17.69-136.97-7.47-182.3,30.34-57.78,48.2-75.14,128.83-72.45,183.22,.25,5.08-3.66,9.39-8.74,9.64-.15,0-.31,.01-.46,.01Z"/>
      <polygon class="cls-4" points="160.8 429.89 137.02 499.33 88.76 444.01 160.8 429.89"/>
      <polygon class="cls-4" points="391.1 225.68 392.84 225.1 391.47 223.88 391.1 225.68"/>
    </g>
    <g>
      <circle class="cls-3" cx="418.61" cy="240.25" r="22.86"/>
      <path class="cls-1" d="M418.61,268.63c-15.65,0-28.38-12.73-28.38-28.38s12.73-28.38,28.38-28.38,28.38,12.73,28.38,28.38-12.73,28.38-28.38,28.38Zm0-45.72c-9.56,0-17.34,7.78-17.34,17.34s7.78,17.34,17.34,17.34,17.34-7.78,17.34-17.34-7.78-17.34-17.34-17.34Z"/>
    </g>
    <path class="cls-3" d="M680.22,69.97c-10.07-20.23-29.78-34.77-53.04-37.6-3.77-.46-7.06,2.59-7.06,6.38h0c0,3.25,2.45,5.93,5.67,6.33,18.88,2.33,34.89,14.22,43.09,30.66,1.08,2.13,3.28,3.41,5.61,3.41,3.68,0,6.42-3.04,6.42-6.38,0-.95-.2-1.89-.68-2.8Z"/>
    <path class="cls-3" d="M560.53,475.56l-.1-.05c-3.18-1.48-6.93,.35-7.68,3.78-8.17,36.99-31.3,68.41-62.69,87.61-2.57,1.57-3.38,4.85-1.85,7.44,.02,.03,.04,.06,.06,.1,1.52,2.58,4.83,3.54,7.39,1.98,34-20.75,59.05-54.76,67.88-94.81,.54-2.46-.72-4.99-3-6.05Z"/>
  </g>
</svg>