<?xml version="1.0" encoding="UTF-8"?>
<svg id="Layer_1" data-name="Layer 1" xmlns="http://www.w3.org/2000/svg" viewBox="0 0 800.25 800.25">
  <defs>
    <style>
      .cls-1 {
        fill: #fff;
      }

      .cls-2 {
        fill: #18d3ff;
      }

      .cls-3 {
        fill: #23324e;
      }

      .cls-4 {
        fill: #58b999;
      }
    </style>
  </defs>
  <path class="cls-3" d="M518.43,797.81h-205.73c-5.08,0-9.2-4.12-9.2-9.2s4.12-9.2,9.2-9.2h205.73c5.08,0,9.2,4.12,9.2,9.2s-4.12,9.2-9.2,9.2Z"/>
  <path class="cls-3" d="M476.57,279.57v.19c-.12,3.06,2.3,5.56,5.36,5.56h150.8c3.05,0,5.52-2.47,5.52-5.52h0c0-3.05-2.47-5.52-5.52-5.52h-150.68c-2.95,0-5.38,2.34-5.48,5.29Z"/>
  <path class="cls-3" d="M742.88,274.28h-39.96c-3.51,0-6.05,3.36-5.1,6.74l.03,.11c.68,2.44,2.78,4.19,5.31,4.19h39.72c2.5,0,4.53,2.03,4.53,4.53v346.03c0,2.5-2.03,4.53-4.53,4.53H382.45c-3.57,0-6.18,3.36-5.3,6.82,0,.04,.02,.07,.03,.11,.62,2.42,2.8,4.11,5.3,4.11h360.4c8.6,0,15.57-6.97,15.57-15.57V289.85c0-8.6-6.97-15.57-15.57-15.57Z"/>
  <path class="cls-3" d="M88.25,640.41c-2.5,0-4.53-2.03-4.53-4.53V289.85c0-2.5,2.03-4.53,4.53-4.53h7.07c3.05,0,5.52-2.47,5.52-5.52s-2.47-5.52-5.52-5.52h-7.07c-8.6,0-15.57,6.97-15.57,15.57v346.03c0,8.6,6.97,15.57,15.57,15.57h10.44c1.94,0,3.71-1.05,4.7-2.71,.02-.04,.05-.08,.07-.11,2.18-3.61-.48-8.22-4.7-8.22h-10.5Z"/>
  <path class="cls-3" d="M174.94,281.26l.11,.37c.62,2.25,2.83,3.69,5.16,3.69h194.86c3.05,0,5.52-2.47,5.52-5.52h0c0-3.05-2.47-5.52-5.52-5.52H180.17c-3.63,0-6.25,3.49-5.23,6.98Z"/>
  <path class="cls-3" d="M643.26,239.99H189.93c-5.19,0-9.23,4.32-9.07,9.51,0,.06,0,.13,0,.19,.12,4.87,4.2,8.71,9.08,8.71h453.85c5.4,0,9.71-4.64,9.15-10.15-.48-4.79-4.87-8.25-9.68-8.25Z"/>
  <path class="cls-3" d="M775.58,239.99h-53.58c-6.15,0-10.53,5.96-8.7,11.83l.06,.21c1.18,3.79,4.69,6.37,8.66,6.37h53.55c1.41,0,2.56,1.15,2.56,2.56v470.49c0,1.41-1.15,2.56-2.56,2.56H55.55c-1.41,0-2.56-1.15-2.56-2.56V260.96c0-1.41,1.15-2.56,2.56-2.56h59.58c4.52,0,8.36-3.31,9.01-7.78,0-.06,.02-.12,.03-.18,.8-5.5-3.45-10.44-9.01-10.44H55.55c-11.58,0-20.97,9.39-20.97,20.97v470.49c0,11.58,9.39,20.97,20.97,20.97H775.58c11.58,0,20.97-9.39,20.97-20.97V260.96c0-11.58-9.39-20.97-20.97-20.97Z"/>
  <path class="cls-3" d="M415.56,568.99c-64.95,0-117.79-52.84-117.79-117.79s52.84-117.79,117.79-117.79,117.79,52.84,117.79,117.79-52.84,117.79-117.79,117.79Zm0-224.54c-58.86,0-106.75,47.89-106.75,106.75s47.89,106.75,106.75,106.75,106.75-47.89,106.75-106.75-47.89-106.75-106.75-106.75Z"/>
  <rect class="cls-2" x="435.51" y="2.12" width="162.63" height="198.77" rx="2" ry="2"/>
  <path class="cls-3" d="M446.3,175.71c-.46,0-.92-.13-1.33-.4-1.11-.73-1.41-2.23-.68-3.33,12.64-19.08,28.91-32.91,47.06-39.98,2.6-1.01,4.63-4.23,5.17-8.21l1.07-7.9c-10.27-7.51-17.49-19.58-19.96-33.44-.03,0-.06,0-.1,0-5.2,0-9.42-4.79-9.42-10.67s4.23-10.68,9.42-10.68c.03,0,.07,0,.1,0,4.27-24,22.49-41.35,43.56-41.35s39.29,17.35,43.56,41.35c5.1,.13,9.21,4.87,9.21,10.68s-4.11,10.54-9.21,10.67c-2.52,14.17-9.97,26.41-20.6,33.9l1.01,7.45c.54,3.98,2.57,7.2,5.17,8.21,18.15,7.07,34.42,20.9,47.06,39.98,.73,1.11,.43,2.6-.68,3.33-1.11,.73-2.6,.43-3.33-.68-12.09-18.25-27.58-31.45-44.79-38.16-4.26-1.65-7.4-6.27-8.19-12.04l-1.42-10.43,1.27-.83c10.35-6.77,17.6-18.51,19.87-32.21,.35-2.05,2.16-3.47,4.21-3.34,.07,0,.14,.01,.21,.01,2.54,0,4.61-2.63,4.61-5.86s-2.2-6.04-4.82-5.86c-2.06,.14-3.87-1.29-4.21-3.33-3.66-22.04-20.03-38.03-38.93-38.03s-35.28,15.99-38.93,38.03c-.35,2.1-2.25,3.54-4.4,3.33-.1,0-.21-.01-.33-.01-2.54,0-4.61,2.63-4.61,5.87,0,3.38,2.29,6.08,4.95,5.85,2.14-.2,4.03,1.23,4.39,3.33,2.23,13.42,9.25,25.01,19.27,31.83l1.23,.84-1.47,10.82c-.79,5.78-3.93,10.4-8.19,12.05-17.21,6.71-32.7,19.9-44.79,38.15-.46,.7-1.23,1.08-2.01,1.08Zm32-93.3s0,0,0,0c0,0,0,0,0,0Zm-.02-21.29s0,0,0,0c0,0,0,0,0,0Z"/>
  <circle class="cls-3" cx="504.78" cy="69.38" r="5.02"/>
  <circle class="cls-3" cx="536.9" cy="69.38" r="5.02"/>
  <rect class="cls-2" x="634.28" y="2.12" width="162.63" height="198.77" rx="2" ry="2"/>
  <path class="cls-3" d="M645.07,175.71c-.46,0-.92-.13-1.33-.4-1.11-.73-1.41-2.23-.68-3.33,12.64-19.08,28.91-32.91,47.06-39.98,2.6-1.01,4.63-4.23,5.17-8.21l1.07-7.9c-10.27-7.51-17.49-19.58-19.96-33.44-.03,0-.06,0-.1,0-5.2,0-9.42-4.79-9.42-10.67s4.23-10.68,9.42-10.68c.03,0,.07,0,.1,0,4.27-24,22.49-41.35,43.56-41.35s39.29,17.35,43.56,41.35c5.1,.13,9.21,4.87,9.21,10.68s-4.11,10.54-9.21,10.67c-2.52,14.17-9.97,26.41-20.6,33.9l1.01,7.45c.54,3.98,2.57,7.2,5.17,8.21,18.15,7.07,34.42,20.9,47.06,39.98,.73,1.11,.43,2.6-.68,3.33-1.11,.73-2.6,.43-3.33-.68-12.09-18.25-27.58-31.45-44.79-38.16-4.26-1.65-7.4-6.27-8.19-12.04l-1.42-10.43,1.27-.83c10.35-6.77,17.6-18.51,19.87-32.21,.35-2.05,2.16-3.47,4.21-3.34,.07,0,.14,.01,.21,.01,2.54,0,4.61-2.63,4.61-5.86s-2.2-6.04-4.82-5.86c-2.06,.14-3.87-1.29-4.21-3.33-3.66-22.04-20.03-38.03-38.93-38.03s-35.28,15.99-38.93,38.03c-.35,2.1-2.25,3.54-4.4,3.33-.1,0-.21-.01-.33-.01-2.54,0-4.61,2.63-4.61,5.87,0,3.38,2.29,6.08,4.95,5.85,2.14-.2,4.03,1.23,4.39,3.33,2.23,13.42,9.25,25.01,19.27,31.83l1.23,.84-1.47,10.82c-.79,5.78-3.93,10.4-8.19,12.05-17.21,6.71-32.7,19.9-44.79,38.15-.46,.7-1.23,1.08-2.01,1.08Zm32-93.3s0,0,0,0c0,0,0,0,0,0Zm-.02-21.29s0,0,0,0c0,0,0,0,0,0Z"/>
  <circle class="cls-3" cx="703.55" cy="79.42" r="5.02"/>
  <circle class="cls-3" cx="735.67" cy="79.42" r="5.02"/>
  <path class="cls-3" d="M333.55,529.72c-.5,0-1.01-.14-1.46-.44-1.22-.81-1.55-2.45-.74-3.67,13.91-21,31.81-36.21,51.77-43.99,2.86-1.11,5.09-4.65,5.69-9.04l1.18-8.69c-11.3-8.26-19.24-21.54-21.96-36.79-.04,0-.07,0-.11,0-5.72,0-10.37-5.27-10.37-11.74s4.65-11.75,10.37-11.75c.04,0,.07,0,.11,0,4.7-26.4,24.75-45.49,47.92-45.49s43.22,19.08,47.92,45.49c5.61,.14,10.14,5.36,10.14,11.75s-4.53,11.6-10.14,11.74c-2.78,15.59-10.97,29.06-22.66,37.29l1.11,8.19c.6,4.38,2.83,7.93,5.68,9.03,19.97,7.78,37.87,22.99,51.78,43.99,.81,1.22,.47,2.86-.74,3.67-1.22,.81-2.86,.47-3.67-.74-13.3-20.08-30.34-34.6-49.28-41.98-4.69-1.82-8.14-6.89-9.01-13.25l-1.56-11.48,1.4-.91c11.39-7.45,19.36-20.36,21.86-35.44,.38-2.25,2.37-3.82,4.63-3.67,.08,0,.15,.01,.23,.01,2.8,0,5.07-2.89,5.07-6.45s-2.42-6.65-5.3-6.45c-2.26,.15-4.25-1.42-4.63-3.66-4.02-24.25-22.04-41.84-42.83-41.84s-38.81,17.59-42.83,41.84c-.39,2.31-2.47,3.89-4.84,3.67-.11,0-.23-.02-.36-.02-2.8,0-5.07,2.9-5.07,6.46,0,3.72,2.52,6.68,5.44,6.43,2.36-.22,4.44,1.36,4.82,3.66,2.45,14.76,10.18,27.52,21.2,35.01l1.35,.92-1.61,11.91c-.87,6.36-4.32,11.44-9.02,13.26-18.93,7.38-35.97,21.9-49.28,41.98-.51,.77-1.35,1.19-2.21,1.19Zm35.21-102.65s0,0,0,0c0,0,0,0,0,0Zm-.02-23.42s0,0,0,0c0,0,0,0,0,0Z"/>
  <path class="cls-2" d="M311.48,633.31c-9.34-3.61-16.26-14.34-18.02-27.31l-2.31-17c-.57-4.2,1.16-8.4,4.56-10.93,25.95-19.3,44.82-50.63,50.93-87.36,.36-2.17,2.28-3.74,4.51-3.59,.33,.02,.66,.03,.99,.03,10.45,0,18.92-9.98,18.92-22.3s-8.47-22.3-18.92-22.3c-.33,0-.66,.01-.99,.03-2.23,.15-4.15-1.43-4.51-3.59-10.22-61.52-56.2-107.94-111.39-107.94s-101.19,46.44-111.4,107.98c-.38,2.3-2.51,3.8-4.87,3.59-.48-.04-.97-.07-1.46-.07-10.45,0-18.92,9.98-18.92,22.3s8.47,22.3,18.92,22.3c.49,0,.98-.02,1.46-.07,2.36-.21,4.49,1.29,4.87,3.59,5.98,36.02,24.21,66.86,49.37,86.25,3.3,2.55,4.96,6.68,4.4,10.81l-2.48,18.27c-1.76,12.97-8.68,23.7-18.02,27.31-64.67,25.2-119.22,82.92-153.44,159.36-1.14,2.56,.76,5.46,3.56,5.46H234.3s227.06,0,227.06,0c2.8,0,4.7-2.9,3.56-5.46-34.22-76.44-88.77-134.16-153.44-159.36Z"/>
  <path class="cls-4" d="M411.1,226.89c-38.61-71.11-128.2-98.1-199.69-60.15-53.73,28.52-84.31,86.02-77.93,146.51,.5,4.73,4.49,8.24,9.14,8.24,.32,0,.65-.02,.98-.05,5.05-.54,8.72-5.06,8.19-10.12-5.59-52.97,21.2-103.34,68.25-128.32,62.61-33.22,141.07-9.61,174.89,52.68,2.43,4.46,8.01,6.11,12.48,3.7,4.46-2.43,6.12-8.01,3.7-12.48Z"/>
  <polygon class="cls-4" points="176.87 291.82 158.12 362.79 106.03 311.07 176.87 291.82"/>
  <polygon class="cls-4" points="402.05 231.57 403.65 232.47 403.63 230.63 402.05 231.57"/>
  <path class="cls-4" d="M554.36,346.05c-52.71,0-103.9-28.08-130.65-77.34-2.42-4.47-.77-10.05,3.7-12.48,4.47-2.42,10.05-.77,12.48,3.7,33.82,62.29,112.28,85.92,174.89,52.68,47.05-24.98,73.85-75.34,68.25-128.31-.53-5.05,3.13-9.58,8.19-10.12,5.09-.51,9.59,3.13,10.12,8.19,6.38,60.48-24.2,117.99-77.93,146.5-21.97,11.66-45.66,17.19-69.04,17.19Z"/>
  <polygon class="cls-4" points="657.94 203.77 676.69 132.81 728.78 184.52 657.94 203.77"/>
  <polygon class="cls-4" points="432.76 264.02 431.15 263.13 431.18 264.96 432.76 264.02"/>
  <circle class="cls-3" cx="415.56" cy="255.67" r="22.86"/>
  <path class="cls-1" d="M415.56,284.05c-15.65,0-28.38-12.73-28.38-28.38s12.73-28.38,28.38-28.38,28.38,12.73,28.38,28.38-12.73,28.38-28.38,28.38Zm0-45.72c-9.56,0-17.34,7.78-17.34,17.34s7.78,17.34,17.34,17.34,17.34-7.78,17.34-17.34-7.78-17.34-17.34-17.34Z"/>
  <path class="cls-3" d="M563,477.12l-.1-.05c-3.18-1.48-6.93,.35-7.68,3.78-8.17,36.99-31.3,68.41-62.69,87.61-2.57,1.57-3.38,4.85-1.85,7.44,.02,.03,.04,.06,.06,.1,1.52,2.58,4.83,3.54,7.39,1.98,34-20.75,59.05-54.76,67.88-94.81,.54-2.46-.72-4.99-3-6.05Z"/>
</svg>